<?xml version="1.0" encoding="UTF-8" standalone="no"?>
<svg width="32px" height="32px" viewBox="0 0 32 32" version="1.1" xmlns="http://www.w3.org/2000/svg" xmlns:xlink="http://www.w3.org/1999/xlink">
    <!-- Generator: Sketch 3.7.2 (28276) - http://www.bohemiancoding.com/sketch -->
    <title>ActivityStream-32</title>
    <desc>Created with Sketch.</desc>
    <defs>
        <linearGradient x1="54.6484375%" y1="183.290318%" x2="50%" y2="0%" id="linearGradient-1">
            <stop stop-color="#0361B3" offset="0%"></stop>
            <stop stop-color="#0996F8" offset="100%"></stop>
        </linearGradient>
        <path d="M1,5.99683887 C1,3.78944571 2.78679466,2 4.9992748,2 L27.0007252,2 C29.2094637,2 31,3.79412025 31,5.99683887 L31,26.0031611 C31,28.2105543 29.2132053,30 27.0007252,30 L4.9992748,30 C2.79053632,30 1,28.2058797 1,26.0031611 L1,5.99683887 Z M5,13.9979131 C5,12.8944962 5.88772964,12 7,12 C8.1045695,12 9,12.8982606 9,13.9979131 L9,16.0020869 C9,17.1055038 8.11227036,18 7,18 C5.8954305,18 5,17.1017394 5,16.0020869 L5,13.9979131 Z M11,15.9981014 C11,14.8945804 11.8877296,14 13,14 C14.1045695,14 15,14.8867064 15,15.9981014 L15,20.0018986 C15,21.1054196 14.1122704,22 13,22 C11.8954305,22 11,21.1132936 11,20.0018986 L11,15.9981014 Z M17,9.99406028 C17,8.8927712 17.8877296,8 19,8 C20.1045695,8 21,8.89451376 21,9.99406028 L21,22.0059397 C21,23.1072288 20.1122704,24 19,24 C17.8954305,24 17,23.1054862 17,22.0059397 L17,9.99406028 Z M23,11.999615 C23,10.8952581 23.8877296,10 25,10 C26.1045695,10 27,10.8874333 27,11.999615 L27,18.000385 C27,19.1047419 26.1122704,20 25,20 C23.8954305,20 23,19.1125667 23,18.000385 L23,11.999615 Z" id="path-2"></path>
    </defs>
    <g id="Page-1" stroke="none" stroke-width="1" fill="none" fill-rule="evenodd">
        <g id="ActivityStream-32">
            <mask id="mask-3" fill="white">
                <use xlink:href="#path-2"></use>
            </mask>
            <use id="Combined-Shape" fill="url(#linearGradient-1)" xlink:href="#path-2"></use>
            <path d="M31,16.5 L31,5.99683887 C31,3.79412025 29.2094637,2 27.0007252,2 L4.9992748,2 C2.78679466,2 1,3.78944571 1,5.99683887 L1,16.5 L1,6.99683887 C1,4.78944571 2.78679466,3 4.9992748,3 L27.0007252,3 C29.2094637,3 31,4.79412025 31,6.99683887 L31,16.5 Z" id="Combined-Shape" fill="#0D5B92" mask="url(#mask-3)"></path>
            <path d="M5,14.9979131 C5,13.8944962 5.88772964,13 7,13 C8.1045695,13 9,13.8982606 9,14.9979131 L9,17.0020869 C9,18.1055038 8.11227036,19 7,19 C5.8954305,19 5,18.1017394 5,17.0020869 L5,14.9979131 Z M11,16.9981014 C11,15.8945804 11.8877296,15 13,15 C14.1045695,15 15,15.8867064 15,16.9981014 L15,21.0018986 C15,22.1054196 14.1122704,23 13,23 C11.8954305,23 11,22.1132936 11,21.0018986 L11,16.9981014 Z M17,10.9940603 C17,9.8927712 17.8877296,9 19,9 C20.1045695,9 21,9.89451376 21,10.9940603 L21,23.0059397 C21,24.1072288 20.1122704,25 19,25 C17.8954305,25 17,24.1054862 17,23.0059397 L17,10.9940603 Z M23,12.999615 C23,11.8952581 23.8877296,11 25,11 C26.1045695,11 27,11.8874333 27,12.999615 L27,19.000385 C27,20.1047419 26.1122704,21 25,21 C23.8954305,21 23,20.1125667 23,19.000385 L23,12.999615 Z" id="Combined-Shape" fill="#0D5B92" mask="url(#mask-3)"></path>
        </g>
    </g>
</svg>