<?xml version="1.0" encoding="UTF-8" standalone="no"?>
<svg width="16px" height="16px" viewBox="0 0 16 16" version="1.1" xmlns="http://www.w3.org/2000/svg" xmlns:xlink="http://www.w3.org/1999/xlink">
    <!-- Generator: Sketch 3.7.2 (28276) - http://www.bohemiancoding.com/sketch -->
    <title>icon-settings</title>
    <desc>Created with Sketch.</desc>
    <defs></defs>
    <g id="Page-1" stroke="none" stroke-width="1" fill="none" fill-rule="evenodd">
        <g id="icon-settings">
            <path d="M15.9714286,9.17142857 L14.7142857,9.11428571 C14.3714286,9.11428571 13.9142857,9.62857143 13.6285714,10.2571429 C13.3428571,10.9428571 13.3428571,11.6285714 13.5714286,11.8571429 L14.4857143,12.7142857 C13.9714286,13.4 13.4,13.9714286 12.7714286,14.4285714 L11.9142857,13.5142857 C11.6857143,13.2285714 11,13.2857143 10.3142857,13.5714286 C9.62857143,13.8571429 9.11428571,14.3142857 9.17142857,14.6571429 L9.22857143,15.9142857 C8.42857143,16.0285714 7.62857143,16.0285714 6.82857143,15.9142857 L6.88571429,14.6571429 C6.88571429,14.3142857 6.37142857,13.8571429 5.74285714,13.5714286 C5.05714286,13.2857143 4.37142857,13.2857143 4.14285714,13.5142857 L3.28571429,14.4285714 C2.6,13.9142857 2.02857143,13.3428571 1.57142857,12.7142857 L2.48571429,11.9142857 C2.77142857,11.6857143 2.71428571,11 2.42857143,10.3142857 C2.14285714,9.62857143 1.68571429,9.11428571 1.34285714,9.17142857 L0.0857142857,9.22857143 C-0.0285714286,8.42857143 -0.0285714286,7.62857143 0.0857142857,6.82857143 L1.34285714,6.88571429 C1.68571429,6.88571429 2.14285714,6.37142857 2.42857143,5.74285714 C2.71428571,5.05714286 2.71428571,4.37142857 2.48571429,4.14285714 L1.57142857,3.28571429 C2.08571429,2.6 2.65714286,2.02857143 3.28571429,1.57142857 L4.14285714,2.48571429 C4.37142857,2.77142857 5.05714286,2.71428571 5.74285714,2.42857143 C6.42857143,2.14285714 6.94285714,1.68571429 6.88571429,1.34285714 L6.82857143,0.0857142857 C7.62857143,-0.0285714286 8.42857143,-0.0285714286 9.22857143,0.0857142857 L9.17142857,1.34285714 C9.17142857,1.68571429 9.68571429,2.14285714 10.3142857,2.42857143 C11,2.71428571 11.6857143,2.71428571 11.9142857,2.48571429 L12.7714286,1.57142857 C13.4571429,2.08571429 14.0285714,2.65714286 14.4857143,3.28571429 L13.5714286,4.14285714 C13.2857143,4.37142857 13.3428571,5.05714286 13.6285714,5.74285714 C13.9142857,6.42857143 14.3714286,6.94285714 14.7142857,6.88571429 L15.9714286,6.82857143 C16.0857143,7.57142857 16.0857143,8.37142857 15.9714286,9.17142857 Z M8.08571429,4.82857143 C6.31428571,4.82857143 4.94285714,6.25714286 4.94285714,7.97142857 C4.94285714,9.74285714 6.37142857,11.1142857 8.08571429,11.1142857 C9.85714286,11.1142857 11.2285714,9.68571429 11.2285714,7.97142857 C11.2285714,6.2 9.8,4.82857143 8.08571429,4.82857143 Z" id="Icon-—-Preferences" fill="#505050"></path>
            <path d="M13.4789295,11.7128364 C13.5036601,11.7715463 13.534573,11.8202873 13.5714286,11.8571429 L14.4857143,12.7142857 C14.33668,12.9129981 14.182847,13.102113 14.0242153,13.2816305 L13.5714286,12.8571429 C13.3940608,12.6797751 13.3543276,12.227138 13.4789295,11.7128364 Z M9.20657612,15.4303888 L9.22857143,15.9142857 C9.21351584,15.9164365 9.19846025,15.9185468 9.18340465,15.9206167 L9.17142857,15.6571429 C9.1595152,15.5856626 9.1724393,15.5092149 9.20657612,15.4303888 Z M6.8737382,15.9206167 C6.85868261,15.9185468 6.84362702,15.9164365 6.82857143,15.9142857 L6.84806324,15.485466 C6.87262239,15.5448273 6.88571429,15.6024397 6.88571429,15.6571429 L6.8737382,15.9206167 Z M2.04509587,13.2998268 C1.87551763,13.110491 1.71762853,12.9153107 1.57142857,12.7142857 L2.48571429,11.9142857 C2.52740951,11.8809295 2.56180307,11.8378378 2.58925015,11.7864313 C2.72233254,12.293915 2.70505688,12.7388116 2.48571429,12.9142857 L2.04509587,13.2998268 Z M0.0148809524,8.52857143 C-0.0188492063,7.96190476 0.00476190476,7.3952381 0.0857142857,6.82857143 L1.34285714,6.88571429 C1.68571429,6.88571429 2.14285714,6.37142857 2.42857143,5.74285714 C2.49257596,5.58924627 2.54224246,5.4356354 2.57821332,5.28716365 C2.70685733,5.59256198 2.66821625,6.16770956 2.42857143,6.74285714 C2.14285714,7.37142857 1.68571429,7.88571429 1.34285714,7.88571429 L0.0857142857,7.82857143 C0.0523809524,8.06190476 0.0287698413,8.2952381 0.0148809524,8.52857143 Z M2.03292752,3.71836955 L1.57142857,3.28571429 C2.08571429,2.6 2.65714286,2.02857143 3.28571429,1.57142857 L4.14285714,2.48571429 C4.37142857,2.77142857 5.05714286,2.71428571 5.74285714,2.42857143 C6.28561099,2.20242399 6.72096524,1.86887697 6.85056674,1.56961118 L6.88571429,2.34285714 C6.94285714,2.68571429 6.42857143,3.14285714 5.74285714,3.42857143 C5.05714286,3.71428571 4.37142857,3.77142857 4.14285714,3.48571429 L3.28571429,2.57142857 C2.83929585,2.89609653 2.42170025,3.27841019 2.03292752,3.71836955 Z M6.8737382,1.07938332 L6.82857143,0.0857142857 C7.62857143,-0.0285714286 8.42857143,-0.0285714286 9.22857143,0.0857142857 L9.18340465,1.07938332 C8.41351584,0.973538893 7.64362702,0.973538893 6.8737382,1.07938332 Z M9.20907962,1.51453404 C9.3384473,1.82722536 9.78600338,2.18844309 10.3142857,2.42857143 C11,2.71428571 11.6857143,2.71428571 11.9142857,2.48571429 L12.7714286,1.57142857 C13.4571429,2.08571429 14.0285714,2.65714286 14.4857143,3.28571429 L14.0264377,3.71628608 C13.6623948,3.30752016 13.2440585,2.92590099 12.7714286,2.57142857 L11.9142857,3.48571429 C11.6857143,3.71428571 11,3.71428571 10.3142857,3.42857143 C9.68571429,3.14285714 9.17142857,2.68571429 9.17142857,2.34285714 L9.20907962,1.51453404 Z M13.4678927,5.27071161 C13.5081626,5.42427301 13.5621997,5.58356508 13.6285714,5.74285714 C13.9142857,6.42857143 14.3714286,6.94285714 14.7142857,6.88571429 L15.9714286,6.82857143 C16.0528404,7.35774821 16.0762582,7.91592197 16.0416821,8.48243662 C16.0277203,8.26066019 16.0043025,8.04225179 15.9714286,7.82857143 L14.7142857,7.88571429 C14.3714286,7.94285714 13.9142857,7.42857143 13.6285714,6.74285714 C13.3845524,6.1572114 13.3072602,5.57156565 13.4678927,5.27071161 Z" id="Combined-Shape" fill="#3A3A3A"></path>
            <path d="M5.02915279,8.71243565 C5.0099167,8.85337502 5,8.99708309 5,9.14285714 C5,10.9142857 6.42857143,12.2857143 8.14285714,12.2857143 C9.91428571,12.2857143 11.2857143,10.8571429 11.2857143,9.14285714 C11.2857143,8.88649575 11.2557944,8.63851192 11.1994186,8.40185007 C10.9924406,9.91834114 9.70650967,11.1142857 8.08571429,11.1142857 C6.61952024,11.1142857 5.36232724,10.1110807 5.02915279,8.71243565 Z" id="Combined-Shape" fill="#3A3A3A"></path>
        </g>
    </g>
</svg>