<?xml version="1.0"?>
<!-- This Source Code Form is subject to the terms of the Mozilla Public
   - License, v. 2.0. If a copy of the MPL was not distributed with this
   - file, You can obtain one at http://mozilla.org/MPL/2.0/. -->
<svg xmlns="http://www.w3.org/2000/svg" xmlns:xlink="http://www.w3.org/1999/xlink" width="16" height="16" viewBox="0 0 16 16">
  <style>
    path {
      fill-rule: evenodd;
      fill:#4d4d4d;
    }
  </style>
  <path d="M298.938,26.682a8.469,8.469,0,0,1-.4,1.7,5.793,5.793,0,0,1-2.5,3.3,7.683,7.683,0,0,0,1.3.9,31.431,31.431,0,0,1-4.1.3l-0.1-.1v0.1a10.659,10.659,0,0,1-3-.6,6.524,6.524,0,0,0,1.6-2.1,8.029,8.029,0,0,0,.6-3,24.178,24.178,0,0,0,1.4,2.1,3.821,3.821,0,0,0,2.1-3,3.462,3.462,0,0,0-.6-2.3,3.33,3.33,0,0,0-1.7-1.4,9.129,9.129,0,0,1,.8-1.3,3.559,3.559,0,0,1,1.3-1.2,6.375,6.375,0,0,1,3.3,6.6h0Zm-6.9-2s-1.1-1.5-1.6-2a4.142,4.142,0,0,0-2.2,3.5,3.982,3.982,0,0,0,2.4,3.3,7.1,7.1,0,0,1-1,1.4,10.974,10.974,0,0,1-1.2,1.1,6.927,6.927,0,0,1-3.4-6.7,11.7,11.7,0,0,1,.5-2,5.557,5.557,0,0,1,2.1-2.7c0.1-.1.2-0.1,0.3-0.2a5.7,5.7,0,0,0-1.6-.8,17.645,17.645,0,0,1,6.8-.3c-1.2,1.7-1.1,5.4-1.1,5.4h0Z" transform="translate(-284 -18)"/>
</svg>
