<?xml version="1.0"?>
<!-- This Source Code Form is subject to the terms of the Mozilla Public
   - License, v. 2.0. If a copy of the MPL was not distributed with this
   - file, You can obtain one at http://mozilla.org/MPL/2.0/. -->
<svg xmlns="http://www.w3.org/2000/svg" xmlns:xlink="http://www.w3.org/1999/xlink" width="16" height="16" viewBox="0 0 16 16">
  <style>
    path {
      fill-rule: evenodd;
      fill:#4d4d4d;
    }
  </style>
  <path d="M328,32H318a1,1,0,0,1-1-1V27a1,1,0,0,1,2,0v3h8V27a1,1,0,0,1,2,0v4A1,1,0,0,1,328,32Zm-2.859-8.462L324,22.4V27a1,1,0,0,1-2,0V22.415l-1.127,1.127a1,1,0,0,1-1.414-1.414l2.829-2.828h0a0.986,0.986,0,0,1,1.062-.231,0.972,0.972,0,0,1,.1.046,0.992,0.992,0,0,1,.189.126,0.792,0.792,0,0,1,.086.057l2.829,2.828A1,1,0,0,1,325.141,23.538Z" transform="translate(-315 -18)"/>
</svg>
