<svg xmlns="http://www.w3.org/2000/svg" width="16" height="16" viewBox="0 0 16 16">
  <style>
    path {
      fill: #4d4d4d;
    }
  </style>
  <g>
    <path d="M.875,1h5.25A.866.866,0,0,1,7,1.857V6.143A.866.866,0,0,1,6.125,7H.875A.866.866,0,0,1,0,6.143V1.857A.866.866,0,0,1,.875,1Z"/>
    <path d="M9.875,1h5.25A.866.866,0,0,1,16,1.857V6.143A.866.866,0,0,1,15.125,7H9.875A.866.866,0,0,1,9,6.143V1.857A.866.866,0,0,1,9.875,1Z"/>
    <path d="M.875,9h5.25A.866.866,0,0,1,7,9.857v4.286A.866.866,0,0,1,6.125,15H.875A.866.866,0,0,1,0,14.143V9.857A.866.866,0,0,1,.875,9Z"/>
    <path d="M9.875,9h5.25A.866.866,0,0,1,16,9.857v4.286a.866.866,0,0,1-.875.857H9.875A.866.866,0,0,1,9,14.143V9.857A.866.866,0,0,1,9.875,9Z"/>
  </g>
</svg>
