<svg xmlns="http://www.w3.org/2000/svg" width="16" height="16" viewBox="0 0 16 16">
  <style>
    path {
      fill: #4d4d4d;
    }
  </style>
  <path d="M.076,6.383A1,1,0,0,0,1,7H2.586L4,8.414V11a1,1,0,0,0,.293.707l2,2a1,1,0,0,0,1.414,0L10,11.414l3.293,3.293a1,1,0,0,0,1.414-1.414L11.414,10l2.293-2.293a1,1,0,0,0,0-1.414l-2-2A1,1,0,0,0,11,4H8.414L7,2.586V1A1,1,0,0,0,5.293.293l-5,5A1,1,0,0,0,.076,6.383ZM3.351,5.064,5.064,3.351a.99.99,0,0,0,.229.356l2,2A1,1,0,0,0,8,6h2.586l1,1L7,11.586l-1-1V8a1,1,0,0,0-.293-.707l-2-2A.994.994,0,0,0,3.351,5.064Z" fill-rule="evenodd"/>
</svg>
