<?xml version="1.0" encoding="UTF-8" standalone="no"?>
<svg width="16px" height="14px" viewBox="0 0 16 14" version="1.1" xmlns="http://www.w3.org/2000/svg" xmlns:xlink="http://www.w3.org/1999/xlink" xmlns:sketch="http://www.bohemiancoding.com/sketch/ns">
    <!-- Generator: Sketch 3.5.1 (25234) - http://www.bohemiancoding.com/sketch -->
    <title>list-icon</title>
    <desc>Created with Sketch.</desc>
    <defs></defs>
    <g id="Page-1" stroke="none" stroke-width="1" fill="none" fill-rule="evenodd" sketch:type="MSPage">
        <rect id="Rectangle-1" fill="#747474" sketch:type="MSShapeGroup" x="0" y="0" width="16" height="14" rx="2"></rect>
        <path d="M2,2 L4,2 L4,4 L2,4 L2,2 Z M5,2 L14,2 L14,4 L5,4 L5,2 Z M5,6 L14,6 L14,8 L5,8 L5,6 Z M5,10 L14,10 L14,12 L5,12 L5,10 Z M2,6 L4,6 L4,8 L2,8 L2,6 Z M2,10 L4,10 L4,12 L2,12 L2,10 Z" id="Rectangle-2" fill="#FFFFFF" sketch:type="MSShapeGroup"></path>
    </g>
</svg>