<svg xmlns="http://www.w3.org/2000/svg" width="16" height="14" viewBox="0 0 32 28">
  <defs>
    <style>
      .cls-1 {
        fill: #4d4d4d;
      }

      .cls-1, .cls-2 {
        fill-rule: evenodd;
      }

      .cls-2 {
        opacity: 0.12;
      }
    </style>
  </defs>
  <path id="Sidebars_copy_8" data-name="Sidebars copy 8" class="cls-1" d="M29,28H5a3,3,0,0,1-3-3V3A3,3,0,0,1,5,0H29a3,3,0,0,1,3,3V25A3,3,0,0,1,29,28ZM10,12a2,2,0,0,0-4,0v2a2,2,0,0,0,4,0V12Zm6,2a2,2,0,0,0-4,0v4a2,2,0,0,0,4,0V14Zm6-6a2,2,0,0,0-4,0V20a2,2,0,0,0,4,0V8Zm6,2a2,2,0,0,0-4,0v4a2,2,0,0,0,4,0V10Z"/>
  <path id="Sidebars_copy_9" data-name="Sidebars copy 9" class="cls-2" d="M29,2H5A3,3,0,0,0,2,5V3A3,3,0,0,1,5,0H29a3,3,0,0,1,3,3V5A3,3,0,0,0,29,2ZM8,18a2,2,0,0,1-2-2V14a2,2,0,0,0,4,0v2A2,2,0,0,1,8,18Zm6,4a2,2,0,0,1-2-2V18a2,2,0,0,0,4,0v2A2,2,0,0,1,14,22Zm6,2a2,2,0,0,1-2-2V20a2,2,0,0,0,4,0v2A2,2,0,0,1,20,24Zm6-6a2,2,0,0,1-2-2V14a2,2,0,0,0,4,0v2A2,2,0,0,1,26,18Z"/>
</svg>
