<?xml version="1.0" encoding="UTF-8" standalone="no"?>
<svg width="16px" height="15px" viewBox="0 0 16 15" version="1.1" xmlns="http://www.w3.org/2000/svg" xmlns:xlink="http://www.w3.org/1999/xlink">
    <!-- Generator: Sketch 3.7.2 (28276) - http://www.bohemiancoding.com/sketch -->
    <title>newtab-icon</title>
    <desc>Created with Sketch.</desc>
    <defs>
        <path d="M15.1146709,6.20196261 C15.1146709,6.22196261 15.0136709,6.51596261 14.8816709,6.97196261 L14.8516709,6.78996261 C14.8916709,6.22196261 14.8616709,5.64396261 14.7606709,5.07696261 C14.5776709,4.31696261 14.1426709,3.63796261 13.5236709,3.16096261 C13.5446709,3.17196261 13.5646709,3.19196261 13.5846709,3.21196261 C13.5446709,3.18196261 13.5136709,3.16096261 13.5136709,3.16096261 C13.5136709,3.16096261 13.5336709,3.24296261 13.5546709,3.38396261 C13.3006709,2.99896261 12.9566709,2.68496261 12.5506709,2.47196261 C12.5506709,2.47196261 12.5716709,2.57396261 12.6016709,2.79696261 C9.93667089,0.404962606 5.87167091,-0.514539064 3.22667091,1.89746094 C3.30767091,1.98846094 3.39967089,3.03996261 3.46067089,3.13096261 C3.80467089,3.07996261 4.15967089,3.06996261 4.51467089,3.10096261 C6.90567089,1.42796261 10.1486709,1.70196261 12.2066709,3.76996261 C12.2676709,3.82996261 12.3276709,3.89096261 12.3786709,3.95196261 C12.0746709,3.69896261 11.7096709,3.53596261 11.3246709,3.45496261 C11.9526709,3.92196261 12.8756709,5.07696261 12.7836709,7.12396261 C12.6526709,6.82996261 12.4596709,6.55696261 12.2266709,6.34396261 C12.4496709,8.39096261 12.2566709,8.83696261 12.1156709,9.37396261 C12.0846709,9.18096261 12.0346709,8.99896261 11.9426709,8.81696261 C11.8926709,9.35396261 11.7406709,9.88096261 11.5076709,10.3669626 C11.1926709,11.0559626 10.8686709,11.2689626 10.7266709,11.2489626 C10.5946709,11.2289626 10.6866709,11.1069626 10.6656709,10.9849626 C10.5036709,11.0669626 10.3616709,11.1779626 10.2306709,11.3099626 C10.0276709,11.5229626 9.84467089,11.7559626 9.74367089,11.6949626 C9.81467089,11.6239626 9.87567089,11.5329626 9.92667089,11.4409626 C9.70367089,11.5939626 9.44967089,11.6949626 9.18667089,11.7149626 C8.48667089,11.8269626 7.76767089,11.6949626 7.14967089,11.3599626 C7.33167089,11.3099626 7.53467089,11.3199626 7.70667089,11.3909626 C7.53467089,11.1979626 7.10867089,11.2389626 6.80467089,11.1479626 C6.50067089,10.9849626 6.22667089,10.7619626 5.99367089,10.4989626 C6.72367089,10.6919626 7.51367089,10.5899626 8.17267089,10.2149626 C8.67967089,9.87096261 8.97367089,9.61696261 9.24667089,9.67796261 C9.37867089,9.71896261 9.53067089,9.64796261 9.57167089,9.50596261 C9.60167089,9.40396261 9.57167089,9.29296261 9.49067089,9.23196261 C9.11567089,8.85696261 8.57867089,8.70496261 8.07167089,8.84696261 C7.58467089,8.97896261 6.98667089,9.50596261 6.07467089,8.96896261 C5.30467089,8.51296261 5.30467089,8.13796261 5.30467089,7.89396261 C5.31467089,7.69196261 5.41667089,7.50896261 5.58867089,7.40796261 C5.64967089,7.42796261 5.69967089,7.44796261 5.75067089,7.47896261 C5.75067089,7.47896261 5.69967089,7.40796261 5.67967089,7.36696261 C5.82167089,7.40796261 5.94367089,7.44796261 6.06467089,7.50896261 C6.13567089,7.53996261 6.18667089,7.57996261 6.23667089,7.64096261 C6.23667089,7.64096261 6.26767089,7.62096261 6.23667089,7.55996261 C6.18667089,7.46896261 6.12567089,7.40796261 6.04467089,7.36696261 C6.12567089,7.39796261 6.19667089,7.42796261 6.26767089,7.46896261 C6.31867089,7.32696261 6.32867089,7.18496261 6.30767089,7.03296261 C6.30767089,6.95196261 6.28767089,6.87096261 6.24767089,6.79996261 C6.21667089,6.75896261 6.25767089,6.73896261 6.30767089,6.77996261 C6.29767089,6.74896261 6.27767089,6.70896261 6.25767089,6.67796261 C6.25767089,6.66796261 6.26767089,6.64796261 6.27767089,6.63796261 C6.64267089,6.35396261 7.02767089,6.10096261 7.43267089,5.88796261 C7.53467089,5.80696261 7.62567089,5.71496261 7.68667089,5.60396261 C7.79767089,5.47196261 7.85867089,5.29996261 7.86867089,5.11696261 C7.81767089,5.02596261 7.72667089,4.96496261 7.62567089,4.94496261 C7.51367089,4.92496261 7.40267089,4.91496261 7.29067089,4.92496261 L6.59167089,4.92496261 C6.33867089,4.92496261 6.10567089,4.79296261 5.96367089,4.57996261 C5.93267089,4.53996261 5.91267089,4.50896261 5.89267089,4.47896261 C5.87267089,4.43796261 5.85167089,4.39796261 5.83167089,4.34696261 C5.97367089,3.86096261 6.25767089,3.41496261 6.66267089,3.10096261 C6.69367089,3.07996261 6.56167089,3.11096261 6.59167089,3.09096261 C6.66267089,3.04996261 6.74367089,2.99896261 6.82467089,2.95896261 C6.70367089,2.88796261 6.56167089,2.87796261 6.42967089,2.91796261 C6.30767089,2.93796261 6.18667089,2.97896261 6.08467089,3.03996261 C6.12567089,2.99896261 6.26767089,2.92796261 6.22667089,2.93796261 C5.97367089,2.99896261 5.74067089,3.12096261 5.52767089,3.28296261 L5.52767089,3.21196261 C5.36567089,3.30296261 5.21367089,3.44496261 5.11267089,3.60696261 L5.11267089,3.52596261 C5.03067089,3.59696261 4.96067089,3.66796261 4.90967089,3.75896261 C4.35167089,3.60696261 3.77467089,3.60696261 3.22667089,3.77996261 C3.00467089,3.59696261 2.81167089,3.38396261 2.64967089,3.14096261 C2.63967089,3.11096261 2.63967089,3.20196261 2.61867089,3.17196261 C2.50767089,2.94896261 2.43667089,2.71596261 2.40667089,2.46196261 C2.40667089,2.44196261 2.40667089,2.41096261 2.39567089,2.39096261 C2.32467089,2.44196261 2.26467089,2.51296261 2.21367089,2.59396261 C2.17267089,2.68496261 2.13267089,2.77596261 2.10267089,2.86796261 C2.08167089,2.93796261 2.06167089,2.96896261 2.05167089,3.00896261 C2.05167089,3.01996261 2.06167089,2.88796261 2.05167089,2.89796261 C2.01067089,2.95896261 1.97067089,3.02996261 1.93967089,3.10096261 C1.92967089,3.16096261 1.90967089,3.22196261 1.89967089,3.28296261 C1.89967089,3.25296261 1.89967089,3.23196261 1.88967089,3.20196261 C1.82867089,3.37396261 1.77767089,3.53596261 1.74767089,3.69896261 C1.70667089,3.85096261 1.68667089,4.00296261 1.66667089,4.16496261 C1.64567089,4.38796261 1.64567089,4.62096261 1.66667089,4.85396261 L1.66667089,4.96496261 C1.53467089,5.13796261 1.43367089,5.31996261 1.34167089,5.51296261 C1.03767089,6.17096261 0.825670894,6.87096261 0.723670894,7.57996261 C0.814670894,7.30696261 0.936670894,7.04296261 1.07867089,6.78996261 C0.845670894,7.65096261 0.764670894,8.53296261 0.855670894,9.41496261 C0.885670894,9.15096261 0.926670894,8.88796261 0.987670894,8.62396261 C1.05867089,9.67796261 1.37267089,10.6919626 1.91967089,11.5939626 C2.33567089,12.3329626 2.90267089,12.9719626 3.58167089,13.4789626 C3.69367089,13.5699626 3.81467089,13.6609626 3.93667089,13.7519626 C4.82867089,14.4409626 8.22367089,15.1509626 8.15267089,15.0389626 C8.15267089,15.0389626 10.6966709,15.1809626 12.0236709,14.1369626 C12.2776709,13.9649626 12.4696709,13.7119626 12.5716709,13.4179626 C13.0276709,13.1749626 13.4426709,12.8699626 13.8176709,12.5059626 C14.3246709,12.0499626 14.6386709,11.4309626 14.6896709,10.7519626 C14.6896709,10.7729626 14.6796709,10.7829626 14.6796709,10.8029626 C14.7296709,10.6209626 14.9326712,10.0030642 14.8516712,9.84106422 C15.1146707,9.06170631 15.6416709,7.67096261 15.1146709,6.20196261 Z" id="path-1"></path>
    </defs>
    <g id="Page-1" stroke="none" stroke-width="1" fill="none" fill-rule="evenodd">
        <g id="16" transform="translate(0.000000, -1.000000)">
            <g id="newtab-icon" transform="translate(0.000000, 1.000000)">
                <mask id="mask-2" fill="white">
                    <use xlink:href="#path-1"></use>
                </mask>
                <use id="Fill-1" fill-opacity="0.2" fill="#FFFFFF" xlink:href="#path-1"></use>
                <path d="M15.1146709,5.20196261 C15.1146709,5.22196261 15.0136709,5.51596261 14.8816709,5.97196261 L14.8516709,5.78996261 C14.8916709,5.22196261 14.8616709,4.64396261 14.7606709,4.07696261 C14.5776709,3.31696261 14.1426709,2.63796261 13.5236709,2.16096261 C13.5446709,2.17196261 13.5646709,2.19196261 13.5846709,2.21196261 C13.5446709,2.18196261 13.5136709,2.16096261 13.5136709,2.16096261 C13.5136709,2.16096261 13.5336709,2.24296261 13.5546709,2.38396261 C13.3006709,1.99896261 12.9566709,1.68496261 12.5506709,1.47196261 C12.5506709,1.47196261 12.5716709,1.57396261 12.6016709,1.79696261 C9.93667089,-0.595037394 5.89267089,-0.565037394 3.24767089,1.84696261 C3.32867089,1.93796261 3.39967089,2.03996261 3.46067089,2.13096261 C3.80467089,2.07996261 4.15967089,2.06996261 4.51467089,2.10096261 C6.90567089,0.427962606 10.1486709,0.701962606 12.2066709,2.76996261 C12.2676709,2.82996261 12.3276709,2.89096261 12.3786709,2.95196261 C12.0746709,2.69896261 11.7096709,2.53596261 11.3246709,2.45496261 C11.9526709,2.92196261 12.8756709,4.07696261 12.7836709,6.12396261 C12.6526709,5.82996261 12.4596709,5.55696261 12.2266709,5.34396261 C12.4496709,7.39096261 12.2566709,7.83696261 12.1156709,8.37396261 C12.0846709,8.18096261 12.0346709,7.99896261 11.9426709,7.81696261 C11.8926709,8.35396261 11.7406709,8.88096261 11.5076709,9.36696261 C11.1926709,10.0559626 10.8686709,10.2689626 10.7266709,10.2489626 C10.5946709,10.2289626 10.6866709,10.1069626 10.6656709,9.98496261 C10.5036709,10.0669626 10.3616709,10.1779626 10.2306709,10.3099626 C10.0276709,10.5229626 9.84467089,10.7559626 9.74367089,10.6949626 C9.81467089,10.6239626 9.87567089,10.5329626 9.92667089,10.4409626 C9.70367089,10.5939626 9.44967089,10.6949626 9.18667089,10.7149626 C8.48667089,10.8269626 7.76767089,10.6949626 7.14967089,10.3599626 C7.33167089,10.3099626 7.53467089,10.3199626 7.70667089,10.3909626 C7.53467089,10.1979626 7.10867089,10.2389626 6.80467089,10.1479626 C6.50067089,9.98496261 6.22667089,9.76196261 5.99367089,9.49896261 C6.72367089,9.69196261 7.51367089,9.58996261 8.17267089,9.21496261 C8.67967089,8.87096261 8.97367089,8.61696261 9.24667089,8.67796261 C9.37867089,8.71896261 9.53067089,8.64796261 9.57167089,8.50596261 C9.60167089,8.40396261 9.57167089,8.29296261 9.49067089,8.23196261 C9.11567089,7.85696261 8.57867089,7.70496261 8.07167089,7.84696261 C7.58467089,7.97896261 6.98667089,8.50596261 6.07467089,7.96896261 C5.30467089,7.51296261 5.30467089,7.13796261 5.30467089,6.89396261 C5.31467089,6.69196261 5.41667089,6.50896261 5.58867089,6.40796261 C5.64967089,6.42796261 5.69967089,6.44796261 5.75067089,6.47896261 C5.75067089,6.47896261 5.69967089,6.40796261 5.67967089,6.36696261 C5.82167089,6.40796261 5.94367089,6.44796261 6.06467089,6.50896261 C6.13567089,6.53996261 6.18667089,6.57996261 6.23667089,6.64096261 C6.23667089,6.64096261 6.26767089,6.62096261 6.23667089,6.55996261 C6.18667089,6.46896261 6.12567089,6.40796261 6.04467089,6.36696261 C6.12567089,6.39796261 6.19667089,6.42796261 6.26767089,6.46896261 C6.31867089,6.32696261 6.32867089,6.18496261 6.30767089,6.03296261 C6.30767089,5.95196261 6.28767089,5.87096261 6.24767089,5.79996261 C6.21667089,5.75896261 6.25767089,5.73896261 6.30767089,5.77996261 C6.29767089,5.74896261 6.27767089,5.70896261 6.25767089,5.67796261 C6.25767089,5.66796261 6.26767089,5.64796261 6.27767089,5.63796261 C6.64267089,5.35396261 7.02767089,5.10096261 7.43267089,4.88796261 C7.53467089,4.80696261 7.62567089,4.71496261 7.68667089,4.60396261 C7.79767089,4.47196261 7.85867089,4.29996261 7.86867089,4.11696261 C7.81767089,4.02596261 7.72667089,3.96496261 7.62567089,3.94496261 C7.51367089,3.92496261 7.40267089,3.91496261 7.29067089,3.92496261 L6.59167089,3.92496261 C6.33867089,3.92496261 6.10567089,3.79296261 5.96367089,3.57996261 C5.93267089,3.53996261 5.91267089,3.50896261 5.89267089,3.47896261 C5.87267089,3.43796261 5.85167089,3.39796261 5.83167089,3.34696261 C5.97367089,2.86096261 6.25767089,2.41496261 6.66267089,2.10096261 C6.69367089,2.07996261 6.56167089,2.11096261 6.59167089,2.09096261 C6.66267089,2.04996261 6.74367089,1.99896261 6.82467089,1.95896261 C6.70367089,1.88796261 6.56167089,1.87796261 6.42967089,1.91796261 C6.30767089,1.93796261 6.18667089,1.97896261 6.08467089,2.03996261 C6.12567089,1.99896261 6.26767089,1.92796261 6.22667089,1.93796261 C5.97367089,1.99896261 5.74067089,2.12096261 5.52767089,2.28296261 L5.52767089,2.21196261 C5.36567089,2.30296261 5.21367089,2.44496261 5.11267089,2.60696261 L5.11267089,2.52596261 C5.03067089,2.59696261 4.96067089,2.66796261 4.90967089,2.75896261 C4.35167089,2.60696261 3.77467089,2.60696261 3.22667089,2.77996261 C3.00467089,2.59696261 2.81167089,2.38396261 2.64967089,2.14096261 C2.63967089,2.11096261 2.63967089,2.20196261 2.61867089,2.17196261 C2.50767089,1.94896261 2.43667089,1.71596261 2.40667089,1.46196261 C2.40667089,1.44196261 2.40667089,1.41096261 2.39567089,1.39096261 C2.32467089,1.44196261 2.26467089,1.51296261 2.21367089,1.59396261 C2.17267089,1.68496261 2.13267089,1.77596261 2.10267089,1.86796261 C2.08167089,1.93796261 2.06167089,1.96896261 2.05167089,2.00896261 C2.05167089,2.01996261 2.06167089,1.88796261 2.05167089,1.89796261 C2.01067089,1.95896261 1.97067089,2.02996261 1.93967089,2.10096261 C1.92967089,2.16096261 1.90967089,2.22196261 1.89967089,2.28296261 C1.89967089,2.25296261 1.89967089,2.23196261 1.88967089,2.20196261 C1.82867089,2.37396261 1.77767089,2.53596261 1.74767089,2.69896261 C1.70667089,2.85096261 1.68667089,3.00296261 1.66667089,3.16496261 C1.64567089,3.38796261 1.64567089,3.62096261 1.66667089,3.85396261 L1.66667089,3.96496261 C1.53467089,4.13796261 1.43367089,4.31996261 1.34167089,4.51296261 C1.03767089,5.17096261 0.825670894,5.87096261 0.723670894,6.57996261 C0.814670894,6.30696261 0.936670894,6.04296261 1.07867089,5.78996261 C0.845670894,6.65096261 0.764670894,7.53296261 0.855670894,8.41496261 C0.885670894,8.15096261 0.926670894,7.88796261 0.987670894,7.62396261 C1.05867089,8.67796261 1.37267089,9.69196261 1.91967089,10.5939626 C2.33567089,11.3329626 2.90267089,11.9719626 3.58167089,12.4789626 C3.69367089,12.5699626 3.81467089,12.6609626 3.93667089,12.7519626 C4.82867089,13.4409626 5.86167089,13.9179626 6.95667089,14.1709626 C6.74367089,14.1099626 6.54167089,13.9989626 6.36867089,13.8569626 C7.05767089,14.0799626 7.92042235,14.2020138 8.63942235,14.2230138 C8.50842235,14.2230138 8.22367089,14.1509626 8.15267089,14.0389626 C8.15267089,14.0389626 10.6966709,14.1809626 12.0236709,13.1369626 C12.2776709,12.9649626 12.4696709,12.7119626 12.5716709,12.4179626 C13.0276709,12.1749626 13.4426709,11.8699626 13.8176709,11.5059626 C14.3246709,11.0499626 14.6386709,10.4309626 14.6896709,9.75196261 C14.6896709,9.77296261 14.6796709,9.78296261 14.6796709,9.80296261 C14.7296709,9.62096261 14.7096709,9.43796261 14.6286709,9.27596261 C15.0336709,8.47496261 15.6416709,6.67096261 15.1146709,5.20196261 Z" id="Fill-1-Copy-3" fill="#4D4D4D"></path>
                <path d="M10.0448752,1.38059396 C8.24523517,0.716421921 6.17462714,0.939479212 4.51467089,2.10096261 C4.15967089,2.06996261 3.80467089,2.07996261 3.46067089,2.13096261 C3.39967089,2.03996261 3.32867089,1.93796261 3.24767089,1.84696261 C5.89267089,-0.565037394 9.93667089,-0.595037394 12.6016709,1.79696261 C12.5716709,1.57396261 12.5506709,1.47196261 12.5506709,1.47196261 C12.9566709,1.68496261 13.3006709,1.99896261 13.5546709,2.38396261 C13.5336709,2.24296261 13.5136709,2.16096261 13.5136709,2.16096261 C13.5136709,2.16096261 13.5446709,2.18196261 13.5846709,2.21196261 C13.5646709,2.19196261 13.5446709,2.17196261 13.5236709,2.16096261 C14.1426709,2.63796261 14.5776709,3.31696261 14.7606709,4.07696261 C14.8616709,4.64396261 14.8916709,5.22196261 14.8516709,5.78996261 L14.8816709,5.97196261 C15.0136709,5.51596261 15.1146709,5.22196261 15.1146709,5.20196261 C15.3195411,5.77303355 15.3528844,6.3947314 15.2933077,6.9884492 C15.2631754,6.72087217 15.205947,6.45639271 15.1146709,6.20196261 C15.1146709,6.22196261 15.0136709,6.51596261 14.8816709,6.97196261 L14.8516709,6.78996261 C14.8916709,6.22196261 14.8616709,5.64396261 14.7606709,5.07696261 C14.5776709,4.31696261 14.1426709,3.63796261 13.5236709,3.16096261 C13.5446709,3.17196261 13.5646709,3.19196261 13.5846709,3.21196261 C13.5446709,3.18196261 13.5136709,3.16096261 13.5136709,3.16096261 C13.5136709,3.16096261 13.5336709,3.24296261 13.5546709,3.38396261 C13.3006709,2.99896261 12.9566709,2.68496261 12.5506709,2.47196261 C12.5506709,2.47196261 12.5716709,2.57396261 12.6016709,2.79696261 C11.7820099,2.06126687 10.9296186,1.60855441 10.0448752,1.38059396 Z M12.7287532,6.00901691 C12.6011555,5.75911468 12.4289934,5.52891837 12.2266709,5.34396261 C12.273155,5.7706574 12.3015635,6.12778726 12.3161352,6.43067714 C12.5091752,6.6288524 12.6698327,6.86847842 12.7836709,7.12396261 C12.8019293,6.71771251 12.7802101,6.34659549 12.7287532,6.00901691 Z M12.3126965,7.36300945 C12.2775072,7.83678277 12.189467,8.09290917 12.1156709,8.37396261 C12.0846709,8.18096261 12.0346709,7.99896261 11.9426709,7.81696261 C11.8926709,8.35396261 11.7406709,8.88096261 11.5076709,9.36696261 C11.1926709,10.0559626 10.8686709,10.2689626 10.7266709,10.2489626 C10.5946709,10.2289626 10.6866709,10.1069626 10.6656709,9.98496261 C10.5036709,10.0669626 10.3616709,10.1779626 10.2306709,10.3099626 C10.0276709,10.5229626 9.84467089,10.7559626 9.74367089,10.6949626 C9.81467089,10.6239626 9.87567089,10.5329626 9.92667089,10.4409626 C9.70367089,10.5939626 9.44967089,10.6949626 9.18667089,10.7149626 C8.59824854,10.8091102 7.99640052,10.7308439 7.45240469,10.5045171 C6.97622939,10.62523 6.47206618,10.6254425 5.99367089,10.4989626 C6.22667089,10.7619626 6.50067089,10.9849626 6.80467089,11.1479626 C7.10867089,11.2389626 7.53467089,11.1979626 7.70667089,11.3909626 C7.53467089,11.3199626 7.33167089,11.3099626 7.14967089,11.3599626 C7.76767089,11.6949626 8.48667089,11.8269626 9.18667089,11.7149626 C9.44967089,11.6949626 9.70367089,11.5939626 9.92667089,11.4409626 C9.87567089,11.5329626 9.81467089,11.6239626 9.74367089,11.6949626 C9.84467089,11.7559626 10.0276709,11.5229626 10.2306709,11.3099626 C10.3616709,11.1779626 10.5036709,11.0669626 10.6656709,10.9849626 C10.6866709,11.1069626 10.5946709,11.2289626 10.7266709,11.2489626 C10.8686709,11.2689626 11.1926709,11.0559626 11.5076709,10.3669626 C11.7406709,9.88096261 11.8926709,9.35396261 11.9426709,8.81696261 C12.0346709,8.99896261 12.0846709,9.18096261 12.1156709,9.37396261 C12.2294397,8.94067282 12.3770627,8.56662777 12.3126965,7.36300945 Z M8.74623259,8.82511902 C8.94056123,8.70593624 9.09678131,8.64447079 9.24667089,8.67796261 C9.37867089,8.71896261 9.53067089,8.64796261 9.57167089,8.50596261 C9.60167089,8.40396261 9.57167089,8.29296261 9.49067089,8.23196261 C9.11567089,7.85696261 8.57867089,7.70496261 8.07167089,7.84696261 C7.58467089,7.97896261 6.98667089,8.50596261 6.07467089,7.96896261 C5.78068492,7.79486182 5.59894279,7.63256851 5.48658979,7.48486544 C5.37664849,7.58947688 5.31249561,7.73590325 5.30467089,7.89396261 C5.30467089,8.13796261 5.30467089,8.51296261 6.07467089,8.96896261 C6.98667089,9.50596261 7.58467089,8.97896261 8.07167089,8.84696261 C8.2961998,8.7840768 8.52661239,8.77885116 8.74623259,8.82511902 Z M7.37044544,4.92108691 C7.39113453,4.90994084 7.41187635,4.898899 7.43267089,4.88796261 C7.53467089,4.80696261 7.62567089,4.71496261 7.68667089,4.60396261 C7.79767089,4.47196261 7.85867089,4.29996261 7.86867089,4.11696261 C7.81767089,4.02596261 7.72667089,3.96496261 7.62567089,3.94496261 C7.51367089,3.92496261 7.40267089,3.91496261 7.29067089,3.92496261 L6.59167089,3.92496261 C6.40823543,3.92496261 6.23531367,3.85557219 6.09996679,3.73622968 C5.98421084,3.92682333 5.89418171,4.13301715 5.83167089,4.34696261 C5.85167089,4.39796261 5.87267089,4.43796261 5.89267089,4.47896261 C5.91267089,4.50896261 5.93267089,4.53996261 5.96367089,4.57996261 C6.10567089,4.79296261 6.33867089,4.92496261 6.59167089,4.92496261 L7.29067089,4.92496261 C7.31731001,4.92258411 7.34389256,4.92133707 7.37044544,4.92108691 Z M5.94563298,3.03333849 C6.10433186,2.67132007 6.34666956,2.34596117 6.66267089,2.10096261 C6.69367089,2.07996261 6.56167089,2.11096261 6.59167089,2.09096261 C6.66267089,2.04996261 6.74367089,1.99896261 6.82467089,1.95896261 C6.70367089,1.88796261 6.56167089,1.87796261 6.42967089,1.91796261 C6.30767089,1.93796261 6.18667089,1.97896261 6.08467089,2.03996261 C6.12567089,1.99896261 6.26767089,1.92796261 6.22667089,1.93796261 C5.97367089,1.99896261 5.74067089,2.12096261 5.52767089,2.28296261 L5.52767089,2.21196261 C5.36567089,2.30296261 5.21367089,2.44496261 5.11267089,2.60696261 L5.11267089,2.52596261 C5.03067089,2.59696261 4.96067089,2.66796261 4.90967089,2.75896261 C4.35167089,2.60696261 3.77467089,2.60696261 3.22667089,2.77996261 C3.00467089,2.59696261 2.81167089,2.38396261 2.64967089,2.14096261 C2.63967089,2.11096261 2.63967089,2.20196261 2.61867089,2.17196261 C2.50767089,1.94896261 2.43667089,1.71596261 2.40667089,1.46196261 C2.40667089,1.44196261 2.40667089,1.41096261 2.39567089,1.39096261 C2.32467089,1.44196261 2.26467089,1.51296261 2.21367089,1.59396261 C2.17267089,1.68496261 2.13267089,1.77596261 2.10267089,1.86796261 C2.08167089,1.93796261 2.06167089,1.96896261 2.05167089,2.00896261 C2.05167089,2.01996261 2.06167089,1.88796261 2.05167089,1.89796261 C2.01067089,1.95896261 1.97067089,2.02996261 1.93967089,2.10096261 C1.92967089,2.16096261 1.90967089,2.22196261 1.89967089,2.28296261 C1.89967089,2.25296261 1.89967089,2.23196261 1.88967089,2.20196261 C1.82867089,2.37396261 1.77767089,2.53596261 1.74767089,2.69896261 C1.70667089,2.85096261 1.68667089,3.00296261 1.66667089,3.16496261 C1.64567089,3.38796261 1.64567089,3.62096261 1.66667089,3.85396261 L1.66667089,3.96496261 C1.53467089,4.13796261 1.43367089,4.31996261 1.34167089,4.51296261 C1.03767089,5.17096261 0.825670894,5.87096261 0.723670894,6.57996261 C0.814670894,6.30696261 0.936670894,6.04296261 1.07867089,5.78996261 C0.985996072,6.13242193 0.917367937,6.47820349 0.874044975,6.82598588 C0.988666115,6.37678989 1.146138,5.93618841 1.34167089,5.51296261 C1.43367089,5.31996261 1.53467089,5.13796261 1.66667089,4.96496261 L1.66667089,4.85396261 C1.64567089,4.62096261 1.64567089,4.38796261 1.66667089,4.16496261 C1.68667089,4.00296261 1.70667089,3.85096261 1.74767089,3.69896261 C1.77767089,3.53596261 1.82867089,3.37396261 1.88967089,3.20196261 C1.89967089,3.23196261 1.89967089,3.25296261 1.89967089,3.28296261 C1.90967089,3.22196261 1.92967089,3.16096261 1.93967089,3.10096261 C1.97067089,3.02996261 2.01067089,2.95896261 2.05167089,2.89796261 C2.06167089,2.88796261 2.05167089,3.01996261 2.05167089,3.00896261 C2.06167089,2.96896261 2.08167089,2.93796261 2.10267089,2.86796261 C2.13267089,2.77596261 2.17267089,2.68496261 2.21367089,2.59396261 C2.26467089,2.51296261 2.32467089,2.44196261 2.39567089,2.39096261 C2.40667089,2.41096261 2.40667089,2.44196261 2.40667089,2.46196261 C2.43667089,2.71596261 2.50767089,2.94896261 2.61867089,3.17196261 C2.63967089,3.20196261 2.63967089,3.11096261 2.64967089,3.14096261 C2.81167089,3.38396261 3.00467089,3.59696261 3.22667089,3.77996261 C3.77467089,3.60696261 4.35167089,3.60696261 4.90967089,3.75896261 C4.96067089,3.66796261 5.03067089,3.59696261 5.11267089,3.52596261 L5.11267089,3.60696261 C5.21367089,3.44496261 5.36567089,3.30296261 5.52767089,3.21196261 L5.52767089,3.28296261 C5.6593481,3.18281375 5.79866879,3.09795188 5.94563298,3.03333849 Z M0.831184944,7.29421183 C0.813528911,7.59637689 0.815230056,7.89959644 0.837102991,8.20301512 C0.870991049,7.72806596 0.952570478,7.25593882 1.07867089,6.78996261 C0.986813986,6.95362315 0.903326143,7.12188669 0.831184944,7.29421183 Z" id="Combined-Shape" fill="#3A3A3A"></path>
            </g>
        </g>
    </g>
</svg>