<?xml version="1.0" encoding="utf-8"?>
<!-- Generator: Adobe Illustrator 19.2.1, SVG Export Plug-In . SVG Version: 6.00 Build 0)  -->
<svg version="1.1" id="Layer_1" xmlns="http://www.w3.org/2000/svg" xmlns:xlink="http://www.w3.org/1999/xlink" x="0px" y="0px"
	 viewBox="0 0 16 16" style="enable-background:new 0 0 16 16;" xml:space="preserve">
<style type="text/css">
	.st0{opacity:0.14;}
	.st1{fill:#FFFFFF;}
	.st2{fill:#4D4D4D;}
	.st3{fill:#474747;}
</style>
<g class="st0">
	<path class="st1" d="M9.19,10.61c0.13,0.04,0.28-0.03,0.32-0.17c0.03-0.1,0-0.21-0.08-0.27C9.21,9.93,8.92,9.8,8.61,9.76
		c-0.14,0.09-0.29,0.2-0.47,0.32c-0.65,0.37-1.42,0.48-2.15,0.28c0.23,0.26,0.5,0.47,0.8,0.64c0.3,0.09,0.72,0.05,0.89,0.24
		c-0.18-0.07-0.37-0.08-0.55-0.03c0.13,0.07,0.27,0.13,0.41,0.18c0.21-0.06,0.41-0.14,0.6-0.25C8.64,10.8,8.93,10.55,9.19,10.61z"/>
	<path class="st1" d="M5.9,4.41c0.02,0.03,0.04,0.06,0.06,0.1c0.05,0.07,0.11,0.12,0.18,0.17c0.14-0.21,0.31-0.4,0.51-0.56
		c0.03-0.02-0.1,0.01-0.07-0.01c0.08-0.05,0.16-0.09,0.24-0.13C6.7,3.9,6.56,3.89,6.43,3.93C6.31,3.95,6.19,3.99,6.09,4.05
		C6.13,4,6.26,3.94,6.23,3.94c-0.1,0.03-0.19,0.07-0.28,0.11C5.92,4.13,5.87,4.2,5.84,4.28C5.86,4.33,5.88,4.37,5.9,4.41z"/>
	<path class="st1" d="M5.77,8.43c0,0-0.05-0.07-0.08-0.1l0.02-0.01C5.83,8.36,5.95,8.4,6.07,8.46c0.07,0.03,0.12,0.07,0.17,0.13
		c0,0,0.03-0.02,0-0.08C6.19,8.42,6.13,8.36,6.05,8.32h0.01c0.07,0.03,0.14,0.06,0.21,0.1c0.05-0.14,0.06-0.28,0.04-0.43
		c0-0.08-0.02-0.16-0.06-0.23C6.22,7.72,6.26,7.7,6.31,7.74C6.3,7.71,6.28,7.67,6.26,7.64c0-0.01,0.01-0.03,0.02-0.04
		c0.35-0.28,0.73-0.53,1.14-0.74c0.1-0.08,0.19-0.17,0.25-0.28c0.11-0.13,0.17-0.3,0.18-0.48C7.8,6.01,7.71,5.95,7.61,5.93
		C7.5,5.91,7.39,5.9,7.28,5.91L7.3,5.92c-0.02,0-0.04,0-0.06,0C6.91,6.11,6.58,6.3,6.28,6.54C6.27,6.55,6.27,6.56,6.26,6.58
		c0.02,0.03,0.03,0.07,0.05,0.1C6.26,6.64,6.22,6.66,6.25,6.71c0.04,0.07,0.05,0.15,0.06,0.23c0.02,0.14,0.01,0.29-0.04,0.43
		C6.2,7.32,6.13,7.29,6.06,7.26H6.05c0.08,0.04,0.14,0.1,0.18,0.18c0.03,0.07,0,0.08,0,0.08c-0.05-0.06-0.1-0.1-0.17-0.13
		C5.95,7.34,5.83,7.3,5.71,7.25L5.69,7.26c0.03,0.03,0.08,0.1,0.08,0.1C5.71,7.34,5.66,7.32,5.6,7.3C5.43,7.4,5.33,7.58,5.32,7.78
		c0,0.16,0,0.37,0.23,0.63C5.57,8.4,5.58,8.37,5.6,8.36C5.66,8.38,5.71,8.4,5.77,8.43z"/>
	<path class="st1" d="M12.23,8.29c0.02-0.23,0.02-0.51,0.01-0.87c-0.03-0.03-0.06-0.07-0.09-0.1C12.19,7.69,12.21,8.01,12.23,8.29z"
		/>
	<path class="st1" d="M11.26,3.41C11.64,3.48,12,3.65,12.3,3.89c-0.06-0.06-0.11-0.12-0.17-0.18c-0.5-0.5-1.06-0.88-1.67-1.17
		c-0.03-0.01-0.05-0.03-0.08-0.04c-0.03-0.01-0.07-0.02-0.1-0.03C8.75,1.92,7.06,1.93,5.53,2.5C5.19,2.65,4.86,2.83,4.54,3.05
		c-0.05,0-0.1,0-0.15,0C4.1,3.22,3.84,3.43,3.57,3.65c0.45-0.09,0.91-0.08,1.35,0.04l0,0c0.06-0.08,0.13-0.16,0.2-0.23
		c0,0.03,0,0.06,0,0.08c0.1-0.16,0.25-0.3,0.41-0.39c0,0.02-0.01,0.04,0,0.07c0.21-0.16,0.44-0.27,0.69-0.35
		c0.03-0.01-0.1,0.06-0.14,0.1c0.11-0.06,0.22-0.1,0.34-0.12C6.56,2.83,6.7,2.84,6.82,2.91C6.74,2.95,6.66,3,6.58,3.04
		c-0.03,0.02,0.1-0.01,0.07,0.01C6.6,3.1,6.56,3.17,6.5,3.22c1.97-0.5,4.12,0.04,5.63,1.55c0.06,0.06,0.12,0.12,0.17,0.18
		c-0.3-0.25-0.66-0.41-1.04-0.49c0.48,0.36,1.14,1.14,1.36,2.42c0.02,0.05,0.06,0.09,0.08,0.13C12.79,5.01,11.88,3.86,11.26,3.41z"
		/>
	<path class="st1" d="M15.16,7.93c-0.1,0.9-0.41,1.73-0.65,2.2c0.08,0.15,0.1,0.33,0.07,0.5c0-0.02,0.01-0.03,0.01-0.05
		c-0.06,0.67-0.37,1.28-0.86,1.73c-0.36,0.36-0.78,0.67-1.23,0.91c-0.1,0.29-0.29,0.54-0.54,0.71c-1.31,1.03-3.82,0.89-3.82,0.89
		C8.21,14.93,8.34,15,8.47,15c-0.71-0.02-1.42-0.14-2.09-0.36c0.17,0.14,0.36,0.25,0.58,0.31c-1.08-0.24-2.1-0.72-2.98-1.4
		c-0.12-0.08-0.24-0.17-0.35-0.27c-0.67-0.5-1.23-1.13-1.64-1.86C1.44,10.54,1.13,9.54,1.06,8.5C1,8.76,0.96,9.02,0.93,9.28
		C0.92,9.21,0.92,9.15,0.92,9.09C0.88,9.5,0.88,9.92,0.93,10.34C0.96,10.08,1,9.82,1.06,9.56c0.07,1.04,0.38,2.04,0.92,2.93
		c0.41,0.73,0.97,1.36,1.64,1.86c0.11,0.09,0.23,0.18,0.35,0.27c0.88,0.68,1.9,1.15,2.98,1.4c-0.21-0.06-0.41-0.17-0.58-0.31
		c0.68,0.22,1.38,0.34,2.09,0.36c-0.13,0-0.26-0.07-0.33-0.18c0,0,2.51,0.14,3.82-0.89c0.25-0.17,0.44-0.42,0.54-0.71
		c0.45-0.24,0.86-0.54,1.23-0.91c0.5-0.45,0.81-1.06,0.86-1.73c0,0.02-0.01,0.03-0.01,0.05c0.04-0.17,0.01-0.35-0.07-0.5
		C14.85,10.54,15.31,9.2,15.16,7.93z"/>
	<path class="st1" d="M0.92,8C0.88,8.18,0.83,8.35,0.8,8.53C0.83,8.45,0.87,8.38,0.91,8.3C0.91,8.2,0.91,8.1,0.92,8z"/>
</g>
<path class="st2" d="M14.52,10.13c0.4-0.79,1-2.57,0.48-4.02c0,0.01,0.01,0.03,0.01,0.04C15.01,6.14,15,6.13,15,6.13
	s-0.1,0.29-0.23,0.74c-0.01-0.06-0.02-0.12-0.03-0.18c0.04-0.56,0.01-1.13-0.09-1.69c-0.18-0.75-0.61-1.42-1.22-1.89
	c0.02,0.01,0.04,0.03,0.06,0.05c-0.04-0.03-0.07-0.05-0.07-0.05s0.02,0.08,0.04,0.22c-0.25-0.38-0.59-0.69-0.99-0.9
	c0,0,0.02,0.1,0.05,0.32C9.89,0.39,5.9,0.42,3.29,2.8C3.37,2.89,3.44,2.99,3.5,3.08c0.34-0.05,0.69-0.06,1.04-0.03
	c2.36-1.65,5.56-1.38,7.59,0.66c0.06,0.06,0.12,0.12,0.17,0.18c-0.3-0.25-0.66-0.41-1.04-0.49c0.62,0.46,1.53,1.6,1.44,3.62
	c-0.13-0.29-0.32-0.56-0.55-0.77c0.22,2.02,0.03,2.46-0.11,2.99c-0.03-0.19-0.08-0.37-0.17-0.55c-0.05,0.53-0.2,1.05-0.43,1.53
	c-0.31,0.68-0.63,0.89-0.77,0.87c-0.13-0.02-0.04-0.14-0.06-0.26c-0.16,0.08-0.3,0.19-0.43,0.32c-0.2,0.21-0.38,0.44-0.48,0.38
	c0.07-0.07,0.13-0.16,0.18-0.25c-0.22,0.15-0.47,0.25-0.73,0.27c-0.69,0.11-1.4-0.02-2.01-0.35c0.18-0.05,0.38-0.04,0.55,0.03
	c-0.17-0.19-0.59-0.15-0.89-0.24c-0.3-0.16-0.57-0.38-0.8-0.64c0.72,0.19,1.5,0.09,2.15-0.28c0.5-0.34,0.79-0.59,1.06-0.53
	c0.13,0.04,0.28-0.03,0.32-0.17c0.03-0.1,0-0.21-0.08-0.27C9.08,8.73,8.55,8.58,8.05,8.72C7.57,8.85,6.98,9.37,6.08,8.84
	C5.32,8.39,5.32,8.02,5.32,7.78C5.33,7.58,5.43,7.4,5.6,7.3c0.06,0.02,0.11,0.04,0.16,0.07c0,0-0.05-0.07-0.07-0.11l0.02-0.01
	C5.83,7.3,5.95,7.34,6.07,7.4c0.07,0.03,0.12,0.07,0.17,0.13c0,0,0.03-0.02,0-0.08C6.19,7.36,6.13,7.3,6.05,7.26h0.01
	c0.07,0.03,0.14,0.06,0.21,0.1c0.05-0.14,0.06-0.28,0.04-0.43c0-0.08-0.02-0.16-0.06-0.23C6.22,6.66,6.26,6.64,6.31,6.68
	C6.3,6.65,6.28,6.61,6.26,6.58l0,0c0-0.01,0.01-0.03,0.02-0.04C6.64,6.26,7.02,6.01,7.42,5.8c0.1-0.08,0.19-0.17,0.25-0.28
	c0.11-0.13,0.17-0.3,0.18-0.48C7.8,4.95,7.71,4.89,7.61,4.87C7.5,4.85,7.39,4.84,7.28,4.85L7.3,4.86C7.13,4.85,6.9,4.85,6.59,4.85
	c-0.25,0-0.48-0.13-0.62-0.34C5.94,4.47,5.92,4.44,5.9,4.41C5.88,4.37,5.86,4.33,5.84,4.28C5.98,3.8,6.26,3.36,6.66,3.05
	c0.03-0.02-0.1,0.01-0.07-0.01C6.66,3,6.74,2.95,6.82,2.91C6.7,2.84,6.56,2.83,6.43,2.87C6.31,2.89,6.19,2.93,6.09,2.99
	c0.04-0.04,0.18-0.11,0.14-0.1C5.98,2.95,5.75,3.07,5.54,3.23c0-0.02,0-0.04,0-0.07C5.38,3.25,5.23,3.39,5.13,3.55
	c0-0.03,0-0.06,0-0.08C5.05,3.54,4.98,3.61,4.93,3.7l0,0C4.38,3.55,3.81,3.55,3.27,3.72C3.05,3.54,2.86,3.33,2.7,3.09
	C2.69,3.06,2.69,3.15,2.67,3.12C2.56,2.9,2.49,2.67,2.46,2.42c0-0.02,0-0.05-0.01-0.07c-0.07,0.05-0.13,0.12-0.18,0.2
	C2.23,2.64,2.19,2.73,2.16,2.82c-0.02,0.07-0.04,0.1-0.05,0.14c0,0.01,0.01-0.12,0-0.11c-0.04,0.06-0.08,0.13-0.11,0.2
	C1.99,3.11,1.97,3.17,1.96,3.23v0c0-0.03,0-0.05-0.01-0.08C1.89,3.32,1.84,3.48,1.81,3.64C1.77,3.79,1.75,3.94,1.73,4.1
	c-0.02,0.22-0.02,0.45,0,0.68c0,0.04,0,0.08,0,0.11C1.6,5.06,1.5,5.24,1.41,5.43C1.11,6.08,0.9,6.77,0.8,7.47
	C0.89,7.2,1.01,6.94,1.15,6.69l0,0.02C0.92,7.54,0.84,8.41,0.93,9.28C0.96,9.02,1,8.76,1.06,8.5c0.07,1.04,0.38,2.04,0.92,2.93
	c0.41,0.73,0.97,1.36,1.64,1.86c0.11,0.09,0.23,0.18,0.35,0.27c0.88,0.68,1.9,1.15,2.98,1.4c-0.21-0.06-0.41-0.17-0.58-0.31
	c0.68,0.22,1.38,0.34,2.09,0.36c-0.13,0-0.26-0.07-0.33-0.18c0,0,2.51,0.14,3.82-0.89c0.25-0.17,0.44-0.42,0.54-0.71
	c0.45-0.24,0.86-0.54,1.23-0.9c0.5-0.45,0.81-1.06,0.86-1.73c0,0.02-0.01,0.03-0.01,0.05C14.62,10.47,14.6,10.29,14.52,10.13z"/>
<g>
	<path class="st3" d="M1.15,7.68c-0.1,0.17-0.17,0.36-0.24,0.54C0.89,8.5,0.89,8.78,0.91,9.06C0.95,8.6,1.02,8.15,1.15,7.7
		L1.15,7.68z"/>
	<path class="st3" d="M13.44,3.11c0.01,0.01,0.02,0.02,0.02,0.02c0.01,0.01,0.01,0.01,0.03,0.02C13.48,3.14,13.46,3.12,13.44,3.11z"
		/>
	<path class="st3" d="M12.23,7.35c0.19,0.2,0.35,0.42,0.47,0.67c0.02-0.41-0.01-0.77-0.06-1.11c-0.13-0.25-0.29-0.47-0.49-0.66
		C12.19,6.69,12.22,7.04,12.23,7.35z"/>
	<path class="st3" d="M4.29,3.05c0.65-0.4,1.35-0.68,2.07-0.85C6.4,2.19,6.44,2.17,6.49,2.16c0.15-0.03,0.29-0.05,0.44-0.08
		C7.23,2.03,7.54,2,7.85,2c0.04,0,0.08,0,0.12,0C8.28,2,8.59,2.03,8.9,2.08C9.06,2.1,9.2,2.13,9.36,2.16
		C9.43,2.17,9.5,2.19,9.57,2.21c1.07,0.26,2.09,0.75,2.97,1.53c-0.03-0.22-0.05-0.32-0.05-0.32c0.4,0.21,0.74,0.52,0.99,0.9
		c-0.03-0.14-0.04-0.22-0.04-0.22s0.02,0.02,0.03,0.03c-0.01-0.01-0.02-0.02-0.02-0.02c0.02,0.01,0.04,0.03,0.06,0.05
		c-0.02-0.01-0.02-0.01-0.03-0.02C14.06,4.6,14.48,5.26,14.65,6c0.1,0.56,0.13,1.13,0.09,1.69c0.01,0.06,0.02,0.12,0.03,0.18
		C14.91,7.42,15,7.13,15,7.13s0,0.01,0.01,0.03c0-0.01-0.01-0.03-0.01-0.04c0.09,0.26,0.14,0.52,0.17,0.79
		c0.06-0.59,0.04-1.22-0.17-1.79c0,0.01,0.01,0.03,0.01,0.04C15.01,6.14,15,6.13,15,6.13s-0.1,0.29-0.23,0.74
		c-0.01-0.06-0.02-0.12-0.03-0.18c0.04-0.56,0.01-1.13-0.09-1.69c-0.18-0.74-0.6-1.4-1.19-1.87c-0.01-0.01-0.03-0.03-0.03-0.03
		s0.01,0.08,0.04,0.22c-0.25-0.38-0.59-0.69-0.99-0.9c0,0,0.02,0.1,0.05,0.32C9.89,0.39,5.9,0.42,3.29,2.8
		C3.37,2.89,3.44,2.99,3.5,3.08C3.76,3.04,4.03,3.04,4.29,3.05z"/>
	<path class="st3" d="M6.08,9.84c0.9,0.53,1.49,0.01,1.97-0.12C8.26,9.66,8.48,9.66,8.69,9.7c0.2-0.12,0.36-0.19,0.5-0.16
		c0.13,0.04,0.28-0.03,0.32-0.17c0.03-0.1,0-0.21-0.08-0.27C9.08,8.73,8.54,8.58,8.05,8.72C7.57,8.85,6.98,9.37,6.08,8.84
		C5.8,8.68,5.63,8.52,5.52,8.38c-0.11,0.11-0.19,0.24-0.2,0.4C5.32,9.01,5.32,9.38,6.08,9.84z"/>
	<path class="st3" d="M1.15,6.7C1.04,7.08,0.97,7.47,0.93,7.86c0.11-0.49,0.26-0.97,0.47-1.43c0.09-0.19,0.2-0.38,0.32-0.55
		c0-0.04,0-0.07,0-0.11c-0.02-0.22-0.02-0.45,0-0.68c0.01-0.15,0.04-0.31,0.08-0.46c0.03-0.16,0.08-0.32,0.14-0.48
		c0.01,0.02,0.01,0.05,0.01,0.08v0c0.01-0.06,0.03-0.12,0.05-0.18c0.03-0.07,0.06-0.14,0.11-0.2c0.01-0.01-0.01,0.12,0,0.11
		c0.01-0.04,0.03-0.07,0.05-0.14c0.03-0.09,0.07-0.18,0.12-0.27c0.04-0.08,0.1-0.15,0.18-0.2c0,0.02,0.01,0.04,0.01,0.07
		c0.03,0.24,0.1,0.48,0.21,0.7C2.68,4.15,2.69,4.06,2.7,4.09c0.15,0.24,0.34,0.45,0.56,0.63C3.8,4.55,4.38,4.54,4.92,4.69l0,0
		c0.06-0.08,0.13-0.16,0.2-0.23c0,0.03,0,0.06,0,0.08c0.1-0.16,0.25-0.3,0.41-0.39c0,0.02-0.01,0.04,0,0.07
		c0.14-0.1,0.29-0.18,0.44-0.25c0.14-0.32,0.33-0.6,0.59-0.83c-0.71,0.17-1.4,0.46-2.03,0.9C4.19,4.02,3.85,4.03,3.5,4.08
		C3.44,3.98,3.37,3.89,3.29,3.8C3.34,3.75,3.4,3.72,3.45,3.68C3.39,3.69,3.33,3.7,3.27,3.72C3.05,3.54,2.86,3.33,2.7,3.09
		C2.69,3.06,2.68,3.15,2.67,3.12C2.56,2.9,2.49,2.67,2.46,2.42c0-0.02,0-0.05-0.01-0.07c-0.07,0.05-0.13,0.12-0.18,0.2
		C2.23,2.64,2.19,2.73,2.16,2.82c-0.02,0.07-0.04,0.1-0.05,0.14c-0.01,0.01,0.01-0.12,0-0.11c-0.04,0.06-0.08,0.13-0.11,0.2
		C1.99,3.11,1.97,3.17,1.96,3.23v0c0-0.03,0-0.05-0.01-0.08C1.89,3.32,1.84,3.48,1.81,3.64C1.77,3.79,1.75,3.94,1.73,4.1
		c-0.02,0.22-0.02,0.45,0,0.68c0,0.04,0,0.08,0,0.11C1.6,5.06,1.49,5.24,1.41,5.43C1.11,6.08,0.9,6.77,0.8,7.47
		C0.89,7.2,1.01,6.94,1.15,6.69L1.15,6.7z"/>
	<path class="st3" d="M11.87,8.7c-0.05,0.53-0.2,1.05-0.43,1.53c-0.31,0.68-0.63,0.89-0.77,0.87c-0.13-0.02-0.04-0.14-0.06-0.26
		c-0.16,0.08-0.3,0.19-0.43,0.32c-0.2,0.21-0.38,0.44-0.48,0.38c0.07-0.07,0.13-0.16,0.18-0.25c-0.22,0.15-0.47,0.25-0.73,0.27
		c-0.58,0.09-1.16,0.01-1.69-0.21c-0.47,0.13-0.97,0.14-1.45,0.01c0.23,0.26,0.5,0.47,0.8,0.63c0.3,0.09,0.72,0.06,0.89,0.24
		c-0.18-0.07-0.37-0.08-0.55-0.03c0.61,0.33,1.32,0.46,2.01,0.35c0.26-0.03,0.51-0.12,0.73-0.27c-0.05,0.09-0.11,0.18-0.18,0.25
		c0.09,0.07,0.28-0.17,0.48-0.38c0.12-0.13,0.27-0.24,0.43-0.32c0.02,0.12-0.06,0.24,0.06,0.26c0.14,0.02,0.46-0.19,0.77-0.87
		c0.23-0.48,0.38-1,0.43-1.53c0.09,0.17,0.14,0.36,0.17,0.55c0.11-0.43,0.25-0.81,0.19-1.98c-0.04,0.45-0.12,0.71-0.19,0.99
		C12.01,9.05,11.95,8.87,11.87,8.7z"/>
	<path class="st3" d="M5.9,5.4c0.02,0.03,0.04,0.06,0.06,0.1C6.1,5.72,6.34,5.84,6.59,5.85c0.31,0,0.54,0,0.71,0.01L7.28,5.85
		c0.02,0,0.04,0,0.06,0C7.37,5.84,7.39,5.82,7.42,5.8c0.1-0.08,0.19-0.17,0.25-0.28c0.11-0.13,0.17-0.3,0.18-0.48
		C7.8,4.95,7.71,4.89,7.61,4.87C7.5,4.85,7.39,4.84,7.28,4.85l0.02,0.01c-0.17-0.01-0.4-0.02-0.71-0.01c-0.18,0-0.33-0.08-0.46-0.19
		C6.01,4.85,5.9,5.06,5.84,5.28C5.86,5.32,5.88,5.36,5.9,5.4z"/>
</g>
</svg>
