<svg xmlns="http://www.w3.org/2000/svg" xmlns:xlink="http://www.w3.org/1999/xlink" viewBox="0 0 234.45 93.42">
  <defs>
    <style>.cls-1{fill:#592acb;}.cls-2{fill:#ffd567;}.cls-3{fill:url(#linear-gradient);}.cls-4{fill:url(#linear-gradient-2);}.cls-5{fill:url(#linear-gradient-3);}.cls-6{fill:url(#linear-gradient-4);}.cls-7{fill:#ab71ff;}.cls-8{fill:url(#linear-gradient-5);}.cls-9{fill:url(#linear-gradient-6);}.cls-10{fill:#ff9aa2;}.cls-11{fill:#f9f9fa;}</style>
    <linearGradient id="linear-gradient" x1="13.96" y1="71.25" x2="66.65" y2="18.56" gradientUnits="userSpaceOnUse"><stop offset="0" stop-color="#c689ff"/>
      <stop offset="1" stop-color="#d74cf0"/>
    </linearGradient>
    <linearGradient id="linear-gradient-2" x1="-12.83" y1="103.36" x2="76.61" y2="13.92" gradientUnits="userSpaceOnUse">
      <stop offset="0.23" stop-color="#ffa436"/>
      <stop offset="0.44" stop-color="#ffab3d"/>
      <stop offset="0.74" stop-color="#ffbf51"/>
      <stop offset="1" stop-color="#ffd567"/>
    </linearGradient>
    <linearGradient id="linear-gradient-3" x1="30.51" y1="55.77" x2="51.08" y2="35.2" gradientUnits="userSpaceOnUse">
      <stop offset="0" stop-color="#ff298a"/>
      <stop offset="0.91" stop-color="#ff6a75"/>
    </linearGradient>
    <linearGradient id="linear-gradient-4" x1="68.35" y1="103.16" x2="172.07" y2="-0.55" gradientUnits="userSpaceOnUse">
      <stop offset="0.28" stop-color="#7542e5"/>
      <stop offset="0.42" stop-color="#824deb"/>
      <stop offset="0.79" stop-color="#a067fa"/>
      <stop offset="1" stop-color="#ab71ff"/>
    </linearGradient>
    <linearGradient id="linear-gradient-5" x1="112.89" y1="54" x2="132.94" y2="33.95" gradientUnits="userSpaceOnUse">
      <stop offset="0.49" stop-color="#f770ff"/>
      <stop offset="0.7" stop-color="#f77eff"/>
      <stop offset="1" stop-color="#f68fff"/>
    </linearGradient>
    <linearGradient id="linear-gradient-6" x1="168.83" y1="81.2" x2="234.4" y2="15.64" xlink:href="#linear-gradient-3"/>
  </defs>
  <title>Asset 1</title>
  <g id="Layer_2" data-name="Layer 2">
    <g id="Layer_1-2" data-name="Layer 1">
      <g id="ring1">
        <path class="cls-1" d="M79.37,93.42h0A46.73,46.73,0,0,1,56,87.2,3,3,0,0,1,59,82a40.66,40.66,0,0,0,20.31,5.42,3,3,0,0,1,3,3A3,3,0,0,1,79.37,93.42Zm11.31-1.48a3,3,0,0,1-.77-5.9,40.7,40.7,0,0,0,18.22-10.55,3,3,0,1,1,4.25,4.24,46.76,46.76,0,0,1-20.92,12.1A3,3,0,0,1,90.68,91.94ZM48.47,80.67a3,3,0,0,1-2.12-.88A46.68,46.68,0,0,1,34.22,58.88,3,3,0,0,1,40,57.32,40.77,40.77,0,0,0,50.58,75.54a3,3,0,0,1-2.11,5.13Zm68.73-9.11a3,3,0,0,1-2.6-4.5A40.69,40.69,0,0,0,120,46.71v-.17a3,3,0,0,1,6,0v.12a46.81,46.81,0,0,1-6.24,23.4A3,3,0,0,1,117.2,71.56ZM35.62,49.75a3,3,0,0,1-3-3v-.09a46.69,46.69,0,0,1,6.2-23.27,3,3,0,0,1,5.2,3,40.67,40.67,0,0,0-5.4,20.27A3,3,0,0,1,35.62,49.75Zm85.9-11.51A3,3,0,0,1,118.63,36,40.75,40.75,0,0,0,108,17.83a3,3,0,0,1,4.23-4.26,46.75,46.75,0,0,1,12.17,20.88,3,3,0,0,1-2.11,3.68A2.74,2.74,0,0,1,121.52,38.24ZM48.35,18.88A3,3,0,0,1,46.23,18a3,3,0,0,1,0-4.24A46.7,46.7,0,0,1,67.11,1.61,3,3,0,0,1,68.68,7.4,40.83,40.83,0,0,0,50.47,18,3,3,0,0,1,48.35,18.88Zm52.71-7.1a3,3,0,0,1-1.49-.4A40.7,40.7,0,0,0,79.33,6H79.2a3,3,0,0,1,0-6h.07a46.79,46.79,0,0,1,23.29,6.18,3,3,0,0,1-1.5,5.6Z"/>
        <animateTransform attributeName="transform" attributeType="XML" dur="10s" from="0 79 47" repeatCount="indefinite" to="360 79 47" type="rotate"/>
      </g>
      <g id="ring2">
        <path class="cls-1" d="M79.37,79.16h0a32.41,32.41,0,0,1-16.19-4.32,2.08,2.08,0,1,1,2.08-3.61A28.3,28.3,0,0,0,79.33,75a2.1,2.1,0,0,1,2.1,2.09A2.07,2.07,0,0,1,79.36,79.16Zm7.86-1a2.08,2.08,0,0,1-.54-4.1A28.24,28.24,0,0,0,99.34,66.7a2.09,2.09,0,0,1,3,3,32.54,32.54,0,0,1-14.53,8.41A2.05,2.05,0,0,1,87.22,78.13ZM57.89,70.3a2.05,2.05,0,0,1-1.47-.61A32.49,32.49,0,0,1,48,55.17a2.09,2.09,0,0,1,4-1.09,28.26,28.26,0,0,0,7.34,12.66,2.08,2.08,0,0,1,0,3A2.05,2.05,0,0,1,57.89,70.3ZM105.64,64a2,2,0,0,1-1-.28,2.08,2.08,0,0,1-.77-2.84,28.22,28.22,0,0,0,3.78-14.14v-.12a2.09,2.09,0,0,1,4.17,0v.09a32.46,32.46,0,0,1-4.34,16.25A2.06,2.06,0,0,1,105.64,64ZM49,48.83a2.06,2.06,0,0,1-2.08-2.06v-.06a32.39,32.39,0,0,1,4.31-16.16,2.08,2.08,0,1,1,3.61,2.08,28.28,28.28,0,0,0-3.75,14.08A2.11,2.11,0,0,1,49,48.83Zm59.68-8a2.08,2.08,0,0,1-2-1.54,28.2,28.2,0,0,0-7.37-12.64,2.09,2.09,0,0,1,2.94-3,32.44,32.44,0,0,1,8.45,14.51,2.07,2.07,0,0,1-1.46,2.55A2.15,2.15,0,0,1,108.64,40.83ZM57.81,27.38a2.09,2.09,0,0,1-1.48-3.56,32.48,32.48,0,0,1,14.51-8.44,2.09,2.09,0,0,1,1.09,4,28.25,28.25,0,0,0-12.65,7.35A2.06,2.06,0,0,1,57.81,27.38Zm36.62-4.94a2.18,2.18,0,0,1-1-.27,28.23,28.23,0,0,0-14.06-3.74h-.09a2.09,2.09,0,0,1,0-4.17h.05a32.57,32.57,0,0,1,16.18,4.29,2.08,2.08,0,0,1-1,3.89Z"/>
        <animateTransform attributeName="transform" attributeType="XML" dur="10s" from="360 79 47" repeatCount="indefinite" to="0 79 47" type="rotate"/>
      </g>
      <g id="ring3">
        <path class="cls-1" d="M167.16,93.42h0a46.7,46.7,0,0,1-23.31-6.22,3,3,0,1,1,3-5.2,40.63,40.63,0,0,0,20.31,5.42,3,3,0,0,1,3,3A3,3,0,0,1,167.16,93.42Zm11.31-1.48a3,3,0,0,1-.78-5.9,40.73,40.73,0,0,0,18.23-10.55,3,3,0,1,1,4.24,4.24,46.67,46.67,0,0,1-20.91,12.1A3.06,3.06,0,0,1,178.47,91.94ZM136.25,80.67a3,3,0,0,1-2.12-.88A46.66,46.66,0,0,1,122,58.88a3,3,0,0,1,5.79-1.56,40.68,40.68,0,0,0,10.57,18.22,3,3,0,0,1-2.12,5.13ZM205,71.56a3,3,0,0,1-2.59-4.5,40.69,40.69,0,0,0,5.44-20.35v-.17a3,3,0,1,1,6,0v.12a46.81,46.81,0,0,1-6.24,23.4A3,3,0,0,1,205,71.56ZM123.4,49.75a3,3,0,0,1-3-3v-.09a46.79,46.79,0,0,1,6.2-23.27,3,3,0,0,1,5.21,3,40.58,40.58,0,0,0-5.41,20.27A3,3,0,0,1,123.4,49.75Zm85.91-11.51a3,3,0,0,1-2.9-2.22,40.73,40.73,0,0,0-10.6-18.19A3,3,0,1,1,200,13.57,46.64,46.64,0,0,1,212.2,34.45a3,3,0,0,1-2.11,3.68A2.63,2.63,0,0,1,209.31,38.24ZM136.13,18.88A3,3,0,0,1,134,18a3,3,0,0,1,0-4.24A46.7,46.7,0,0,1,154.9,1.61a3,3,0,0,1,1.57,5.79A40.78,40.78,0,0,0,138.26,18,3,3,0,0,1,136.13,18.88Zm52.72-7.1a3,3,0,0,1-1.49-.4A40.7,40.7,0,0,0,167.12,6H167a3,3,0,0,1,0-6h.06a46.8,46.8,0,0,1,23.3,6.18,3,3,0,0,1-1.5,5.6Z"/>
        <animateTransform attributeName="transform" attributeType="XML" dur="10s" from="0 167 47" repeatCount="indefinite" to="360 167 47" type="rotate"/>
      </g>
      <g id="ring4">
        <path class="cls-1" d="M167.16,79.16h0a32.47,32.47,0,0,1-16.2-4.32A2.09,2.09,0,1,1,153,71.23,28.3,28.3,0,0,0,167.12,75a2.1,2.1,0,0,1,2.1,2.09A2.07,2.07,0,0,1,167.15,79.16Zm7.85-1a2.09,2.09,0,0,1-.54-4.1,28.27,28.27,0,0,0,12.67-7.33,2.08,2.08,0,0,1,2.94,3,32.43,32.43,0,0,1-14.53,8.41A2,2,0,0,1,175,78.13ZM145.68,70.3a2.07,2.07,0,0,1-1.48-.61,32.47,32.47,0,0,1-8.42-14.52,2.08,2.08,0,1,1,4-1.09,28.37,28.37,0,0,0,7.35,12.66,2.09,2.09,0,0,1,0,3A2.07,2.07,0,0,1,145.68,70.3ZM193.42,64a2.08,2.08,0,0,1-1.8-3.12,28.33,28.33,0,0,0,3.78-14.14v-.12a2.09,2.09,0,0,1,4.17,0v.09a32.46,32.46,0,0,1-4.34,16.25A2.09,2.09,0,0,1,193.42,64ZM136.75,48.83a2.06,2.06,0,0,1-2.08-2.06v-.06A32.48,32.48,0,0,1,139,30.55a2.09,2.09,0,1,1,3.62,2.08,28.19,28.19,0,0,0-3.76,14.08A2.11,2.11,0,0,1,136.75,48.83Zm59.68-8a2.08,2.08,0,0,1-2-1.54,28.38,28.38,0,0,0-7.37-12.64,2.09,2.09,0,0,1,2.94-3,32.54,32.54,0,0,1,8.45,14.51A2.08,2.08,0,0,1,197,40.75,2,2,0,0,1,196.43,40.83ZM145.59,27.38a2.11,2.11,0,0,1-1.47-.61,2.09,2.09,0,0,1,0-2.95,32.48,32.48,0,0,1,14.51-8.44,2.09,2.09,0,0,1,1.09,4,28.25,28.25,0,0,0-12.65,7.35A2.08,2.08,0,0,1,145.59,27.38Zm36.63-4.94a2.15,2.15,0,0,1-1-.27,28.23,28.23,0,0,0-14.06-3.74H167a2.09,2.09,0,1,1,0-4.17h0a32.58,32.58,0,0,1,16.19,4.29A2.09,2.09,0,0,1,184,21.4,2.06,2.06,0,0,1,182.22,22.44Z"/>
        <animateTransform attributeName="transform" attributeType="XML" dur="10s" from="360 167 47" repeatCount="indefinite" to="0 167 47" type="rotate"/>
      </g>
        <rect class="cls-2" x="27.08" y="67.8" width="26.45" height="7.67"/><rect class="cls-3" x="8.57" y="23.95" width="63.47" height="41.92"/>
        <path class="cls-4" d="M78.91,70.1H77.18V22.47A3.43,3.43,0,0,0,73.75,19H6.86a3.44,3.44,0,0,0-3.43,3.43V70.1H1.71A1.7,1.7,0,0,0,0,71.8v3.45A1.7,1.7,0,0,0,1.71,77h77.2a1.7,1.7,0,0,0,1.7-1.71V71.8A1.7,1.7,0,0,0,78.91,70.1ZM47.17,73.53H33.44V70.1H47.17Z"/>
        <path class="cls-5" d="M57,41.42a.66.66,0,0,0-.66.67h0v.76a4.62,4.62,0,0,0-6.53-.14A4.53,4.53,0,0,0,48.55,45a.66.66,0,0,0,.48.8.44.44,0,0,0,.16,0,.66.66,0,0,0,.64-.5,3.32,3.32,0,0,1,3.22-2.52,3.25,3.25,0,0,1,2.63,1.34h-1.3a.67.67,0,1,0-.07,1.33H57a.66.66,0,0,0,.66-.67V42.09a.66.66,0,0,0-.66-.67Zm0,4.95a.65.65,0,0,0-.8.48A3.32,3.32,0,0,1,53,49.37,3.25,3.25,0,0,1,50.41,48h1.3a.67.67,0,0,0,0-1.33H49.06a.67.67,0,0,0-.67.67h0V50a.68.68,0,0,0,.63.7.66.66,0,0,0,.7-.63v-.83a4.62,4.62,0,0,0,6.53.15,4.68,4.68,0,0,0,1.29-2.25A.66.66,0,0,0,57.06,46.37ZM28,41a5.07,5.07,0,1,0,5.07,5.07A5.07,5.07,0,0,0,28,41Zm0,8.87a3.8,3.8,0,1,1,3.8-3.8A3.8,3.8,0,0,1,28,49.88Zm2.22-3.8H28V43.86a.32.32,0,0,0-.32-.32.33.33,0,0,0-.32.32V46.4a.32.32,0,0,0,.32.31h2.54a.32.32,0,0,0,0-.63ZM37.92,51a.68.68,0,0,1-.68-.68v-.1l.38-2.7-1.81-1.94a.69.69,0,0,1,0-1,.68.68,0,0,1,.35-.17L38.71,44l1.2-2.39a.67.67,0,0,1,.91-.31.71.71,0,0,1,.31.31L42.32,44l2.53.45a.69.69,0,0,1,.55.79.78.78,0,0,1-.18.35l-1.81,1.94.38,2.7a.69.69,0,0,1-.58.77.65.65,0,0,1-.41-.07L40.52,49.7l-2.29,1.19A.68.68,0,0,1,37.92,51Zm-.51-5.52,1.52,1.63-.31,2.21,1.9-1,1.89,1-.31-2.21,1.52-1.63-2.13-.38-1-2-1,2Z"/><rect class="cls-6" x="105.08" y="20.2" width="36.87" height="55.6" rx="6.13"/><rect class="cls-7" x="120.02" y="66.74" width="6.87" height="3.43"/>
        <path class="cls-8" d="M127.5,51.05a.66.66,0,0,0-.67.66h0v.76a4.62,4.62,0,0,0-7.82,2.1.66.66,0,0,0,.49.8.41.41,0,0,0,.16,0,.67.67,0,0,0,.64-.51,3.29,3.29,0,0,1,5.85-1.18h-1.31a.67.67,0,0,0-.06,1.33h2.72a.67.67,0,0,0,.66-.66V51.71a.66.66,0,0,0-.66-.66Zm0,4.94a.67.67,0,0,0-.81.48,3.3,3.3,0,0,1-5.85,1.19h1.31a.66.66,0,0,0,.63-.69.67.67,0,0,0-.63-.64h-2.66a.67.67,0,0,0-.66.67h0v2.66a.67.67,0,0,0,1.33.06v-.83A4.62,4.62,0,0,0,128,56.8.67.67,0,0,0,127.53,56Zm-4-29.37a5.07,5.07,0,1,0,5.07,5.07A5.07,5.07,0,0,0,123.51,26.62Zm0,8.87a3.81,3.81,0,1,1,3.8-3.8A3.8,3.8,0,0,1,123.51,35.49Zm2.22-3.8h-2.22V29.47a.32.32,0,1,0-.63,0V32a.31.31,0,0,0,.31.32h2.54a.32.32,0,1,0,0-.63Zm-4.82,16.89a.68.68,0,0,1-.68-.68.28.28,0,0,1,0-.09l.37-2.7-1.81-2a.68.68,0,0,1,0-1,.61.61,0,0,1,.34-.17l2.53-.46,1.19-2.39a.68.68,0,0,1,.91-.3.65.65,0,0,1,.31.3l1.19,2.39,2.53.46a.67.67,0,0,1,.55.79.65.65,0,0,1-.17.34l-1.81,2,.37,2.7a.68.68,0,0,1-.58.77.66.66,0,0,1-.41-.08l-2.28-1.19-2.28,1.2A.71.71,0,0,1,120.91,48.58Zm-.51-5.51,1.52,1.63-.31,2.21,1.9-1,1.9,1-.31-2.21,1.52-1.63-2.14-.38-1-1.95-1,1.95Z"/><rect class="cls-9" x="169.62" y="21.73" width="64.83" height="52.54" rx="4.62"/><rect class="cls-10" x="225.83" y="43.73" width="4.27" height="8.55"/>
        <path class="cls-11" d="M217.85,43.35a.66.66,0,0,0-.66.66h0v.76a4.62,4.62,0,0,0-6.53-.14,4.69,4.69,0,0,0-1.29,2.24.67.67,0,0,0,.48.81l.16,0a.68.68,0,0,0,.65-.51A3.28,3.28,0,0,1,216.5,46h-1.3a.67.67,0,0,0-.07,1.33h2.72a.67.67,0,0,0,.67-.66V44a.66.66,0,0,0-.67-.66Zm0,4.94a.66.66,0,0,0-.8.48,3.32,3.32,0,0,1-3.22,2.52A3.26,3.26,0,0,1,211.23,50h1.31a.66.66,0,0,0,.63-.69.67.67,0,0,0-.63-.64h-2.66a.66.66,0,0,0-.66.67h0V52a.65.65,0,0,0,.63.69.67.67,0,0,0,.7-.63V51.2a4.62,4.62,0,0,0,7.82-2.1A.68.68,0,0,0,217.88,48.29Z"/>
        <path class="cls-11" d="M188.81,42.93A5.07,5.07,0,1,0,193.88,48,5.07,5.07,0,0,0,188.81,42.93Zm0,8.87a3.8,3.8,0,1,1,3.8-3.8A3.8,3.8,0,0,1,188.81,51.8ZM191,48h-2.22V45.78a.32.32,0,0,0-.63,0v2.54a.32.32,0,0,0,.31.32H191a.33.33,0,0,0,.32-.32A.32.32,0,0,0,191,48Z"/>
        <path class="cls-11" d="M198.74,52.89a.67.67,0,0,1-.68-.68.38.38,0,0,1,0-.1l.37-2.69-1.81-2a.67.67,0,0,1,0-1,.7.7,0,0,1,.34-.18l2.53-.45,1.19-2.39a.69.69,0,0,1,.91-.31.77.77,0,0,1,.31.31l1.19,2.39,2.53.45a.69.69,0,0,1,.38,1.14l-1.81,2,.37,2.69a.67.67,0,0,1-.58.77.65.65,0,0,1-.41-.07l-2.28-1.19-2.29,1.19A.65.65,0,0,1,198.74,52.89Zm-.51-5.52L199.75,49l-.31,2.21,1.9-1,1.9,1L202.93,49l1.51-1.64L202.31,47l-1-2-1,2Z"/>
      </g>
    </g>
  </svg>
